<svg xmlns="http://www.w3.org/2000/svg" xmlns:xlink="http://www.w3.org/1999/xlink" width="28" height="26.843" viewBox="0 0 28 26.843">
  <defs>
    <clipPath id="clip-path">
      <rect id="Rectangle_2084" data-name="Rectangle 2084" width="28" height="26.843" fill="#fff"/>
    </clipPath>
  </defs>
  <g id="Group_4924" data-name="Group 4924" transform="translate(-740.148 307.113)">
    <g id="Group_4923" data-name="Group 4923" transform="translate(740.148 -307.113)" clip-path="url(#clip-path)">
      <path id="Path_6287" data-name="Path 6287" d="M28,8.18c-.165.581-.339,1.16-.494,1.744q-1.047,3.935-2.085,7.873c-.148.558-.435.762-1.062.762H7c-.39,0-.4,0-.463.391-.1.591-.2,1.183-.281,1.777a.289.289,0,0,0,.1.22,3.6,3.6,0,0,1,1,1.214.43.43,0,0,0,.329.144c1.558.009,3.117.006,4.675.006q3.636,0,7.272,0a.358.358,0,0,0,.378-.226,3.268,3.268,0,1,1,.525,3.7,3.06,3.06,0,0,1-.81-1.549c-.051-.267-.164-.283-.377-.283q-4.7.007-9.4,0c-.683,0-1.367.006-2.05,0-.194,0-.257.061-.3.253A3.3,3.3,0,0,1,4.072,26.83a3.287,3.287,0,0,1,.579-6.547c.053-.31.11-.628.162-.947a10.491,10.491,0,0,0,.2-1.293,6.789,6.789,0,0,0-.1-1.3c-.314-1.993-.642-3.984-.966-5.975Q3.487,8,3.032,5.23c-.13-.8-.254-1.6-.4-2.394a.476.476,0,0,0-.216-.294C1.77,2.194,1.11,1.867.457,1.526A.782.782,0,0,1,.006.7.714.714,0,0,1,.562.027,1.03,1.03,0,0,1,1.19.075c.853.408,1.689.851,2.53,1.283a.952.952,0,0,1,.482.78c.075.494.159.987.227,1.482a.245.245,0,0,0,.247.235q2.538.359,5.076.722c1.584.228,3.166.464,4.75.692,1.71.246,3.42.485,5.13.732q2.753.4,5.505.8c.639.093,1.275.207,1.917.269A1.075,1.075,0,0,1,28,7.688Zm-18.974.4c-.009-.138-.014-.235-.022-.332-.047-.6-.12-1.2-.131-1.794-.006-.306-.132-.376-.391-.41-.738-.094-1.473-.21-2.21-.314-.5-.071-1-.136-1.508-.206a1.127,1.127,0,0,0,0,.144c.122.734.268,1.465.355,2.2.034.287.168.337.393.358.515.049,1.03.1,1.545.156l1.968.194M5.454,9.871c.142.883.273,1.726.419,2.566.009.051.128.112.2.117.508.04,1.017.07,1.526.1.578.031,1.156.056,1.741.084a1.185,1.185,0,0,0,.01-.143c-.055-.717-.116-1.433-.163-2.15-.012-.178-.112-.2-.247-.217-.57-.06-1.139-.123-1.709-.181s-1.155-.113-1.777-.173M10.54,6.352c-.021.052-.035.068-.034.084.054.716.112,1.431.161,2.148.012.18.122.188.259.2.47.043.94.1,1.41.144.711.072,1.422.141,2.148.213V6.922L10.54,6.352m5.6,2.966,4,.41.26-1.956-4.261-.612ZM9.682,16.913c-.061-.81-.115-1.588-.185-2.364-.005-.059-.124-.148-.2-.155-.352-.036-.707-.05-1.061-.069-.678-.036-1.357-.07-2.059-.106.006.1,0,.181.017.258.12.734.25,1.466.357,2.2.027.19.1.241.275.238.655-.008,1.31,0,1.965,0h.888m13.236,8.28a1.629,1.629,0,1,0-1.641-1.624,1.642,1.642,0,0,0,1.641,1.624m-18.539,0a1.629,1.629,0,1,0-1.611-1.642,1.626,1.626,0,0,0,1.611,1.642M14.487,10.8,10.82,10.42l.192,2.414,3.475.192Zm0,3.876-3.345-.184.19,2.4h3.155Zm1.659-3.707V13.12l3.523.2.255-1.956-3.778-.392m5.887-2.96L21.784,9.9l3.919.4.453-1.7-4.122-.6M16.145,16.9h3.043l.258-1.949-3.3-.182Zm9.134-4.988-3.716-.381-.249,1.879.9.049c.8.045,1.6.088,2.4.139.162.01.241-.031.282-.2.114-.485.25-.964.388-1.482m-.88,3.315-3.3-.182-.249,1.867c1.015,0,2.006,0,3-.007.053,0,.135-.089.152-.15.139-.5.266-1,.4-1.528" transform="translate(0 0)" fill="#fff"/>
    </g>
  </g>
</svg>
