<svg xmlns="http://www.w3.org/2000/svg" width="46.746" height="46.746" viewBox="0 0 46.746 46.746">
  <path id="Path_6315" data-name="Path 6315" d="M750.05,319.5A23.373,23.373,0,1,0,773.3,343,23.381,23.381,0,0,0,750.05,319.5Zm-.832,36.493c-1.849.015-2.819-.863-2.851-2.582a2.478,2.478,0,0,1,2.7-2.763,2.724,2.724,0,0,1,2.953,2.615A2.675,2.675,0,0,1,749.218,355.994Zm5.731-12.945c-1.766,1.1-3.5,2.048-3.7,4.556-.088,1.093-1.507.328-2.245.606-.745-.211-1.866.4-2.118-.451a4.953,4.953,0,0,1,.533-4.253,6.686,6.686,0,0,1,2.078-1.9c.6-.37,1.152-.814,1.716-1.237a2.681,2.681,0,0,0-1.441-4.953,2.991,2.991,0,0,0-3.1,1.584c-.257.467-.131,1.294-.973,1.293-1.292,0-2.591.009-3.874-.118-.441-.043-.181-.57-.146-.9a6.639,6.639,0,0,1,5.037-5.722,11.829,11.829,0,0,1,6.778.278,6.285,6.285,0,0,1,1.46,11.216Z" transform="translate(-726.549 -319.501)" fill="#afb7be"/>
</svg>
