<svg xmlns="http://www.w3.org/2000/svg" width="47.415" height="47.414" viewBox="0 0 47.415 47.414">
  <path id="Path_6166" data-name="Path 6166" d="M750.386,319.5a23.708,23.708,0,1,0,23.578,23.837A23.715,23.715,0,0,0,750.386,319.5Zm-.843,37.015c-1.876.015-2.859-.876-2.892-2.619a2.513,2.513,0,0,1,2.739-2.8,2.763,2.763,0,0,1,2.995,2.652A2.713,2.713,0,0,1,749.542,356.516Zm5.813-13.13c-1.791,1.111-3.553,2.077-3.758,4.621-.089,1.108-1.529.333-2.277.615-.756-.214-1.893.407-2.148-.458a5.024,5.024,0,0,1,.541-4.313,6.783,6.783,0,0,1,2.107-1.923c.606-.376,1.168-.826,1.741-1.255a2.719,2.719,0,0,0-1.461-5.024,3.034,3.034,0,0,0-3.145,1.606c-.261.473-.133,1.312-.987,1.312-1.311,0-2.628.009-3.93-.119-.447-.044-.183-.578-.148-.917a6.734,6.734,0,0,1,5.109-5.8,12,12,0,0,1,6.875.282,6.375,6.375,0,0,1,1.481,11.377Z" transform="translate(-726.549 -319.501)" fill="#e70000"/>
</svg>
